<svg xmlns="http://www.w3.org/2000/svg" viewBox="0 0 640 400" preserveAspectRatio="xMidYMid slice">
<rect width="640" height="400" fill="#fbf4e6"/>
<g transform="translate(136 48) rotate(360) scale(2.33) translate(-50 -50)" fill="#e06c9f" opacity="0.58"><path d="M50 10 C58 30 80 34 80 50 C80 66 58 70 50 90 C42 70 20 66 20 50 C20 34 42 30 50 10 Z"/></g>
<g transform="translate(398 151) rotate(320) scale(0.91) translate(-50 -50)" fill="#0e4585" opacity="0.6"><path d="M30 20 Q70 10 75 45 Q80 80 45 82 Q15 84 18 50 Q20 28 30 20 Z"/></g>
<g transform="translate(228 232) rotate(336) scale(2.33) translate(-50 -50)" fill="#e94f37" opacity="0.79"><path d="M50 8 C70 8 86 26 84 48 C82 70 64 88 44 86 C22 84 10 64 16 42 C22 22 32 8 50 8 Z"/></g>
<g transform="translate(427 56) rotate(317) scale(2.27) translate(-50 -50)" fill="#1357a6" opacity="0.75"><path d="M20 50 C20 26 40 12 58 20 C74 27 78 48 70 64 C62 80 40 86 28 74 C18 64 20 60 20 50 Z"/></g>
<g transform="translate(161 312) rotate(210) scale(1.23) translate(-50 -50)" fill="#f4b41a" opacity="0.89"><path d="M50 10 C58 30 80 34 80 50 C80 66 58 70 50 90 C42 70 20 66 20 50 C20 34 42 30 50 10 Z"/></g>
<g transform="translate(556 221) rotate(251) scale(2.02) translate(-50 -50)" fill="#2a9d5c" opacity="0.76"><path d="M30 20 Q70 10 75 45 Q80 80 45 82 Q15 84 18 50 Q20 28 30 20 Z"/></g>
</svg>