<svg xmlns="http://www.w3.org/2000/svg" viewBox="0 0 640 400" role="img" aria-label="Pride Stories (placeholder image)">
<rect width="640" height="400" fill="#fbf4e6"/>
<g transform="translate(308 167) rotate(161) scale(1.32) translate(-50 -50)" fill="#e06c9f" opacity="0.64"><path d="M50 8 C70 8 86 26 84 48 C82 70 64 88 44 86 C22 84 10 64 16 42 C22 22 32 8 50 8 Z"/></g>
<g transform="translate(166 254) rotate(4) scale(1.92) translate(-50 -50)" fill="#0e4585" opacity="0.59"><path d="M20 50 C20 26 40 12 58 20 C74 27 78 48 70 64 C62 80 40 86 28 74 C18 64 20 60 20 50 Z"/></g>
<g transform="translate(91 297) rotate(112) scale(1.27) translate(-50 -50)" fill="#e94f37" opacity="0.82"><path d="M50 10 C58 30 80 34 80 50 C80 66 58 70 50 90 C42 70 20 66 20 50 C20 34 42 30 50 10 Z"/></g>
<g transform="translate(162 357) rotate(291) scale(2.51) translate(-50 -50)" fill="#1357a6" opacity="0.76"><path d="M30 20 Q70 10 75 45 Q80 80 45 82 Q15 84 18 50 Q20 28 30 20 Z"/></g>
<g transform="translate(292 251) rotate(107) scale(0.65) translate(-50 -50)" fill="#f4b41a" opacity="0.56"><path d="M50 8 C70 8 86 26 84 48 C82 70 64 88 44 86 C22 84 10 64 16 42 C22 22 32 8 50 8 Z"/></g>
<g transform="translate(165 315) rotate(125) scale(1.22) translate(-50 -50)" fill="#2a9d5c" opacity="0.65"><path d="M20 50 C20 26 40 12 58 20 C74 27 78 48 70 64 C62 80 40 86 28 74 C18 64 20 60 20 50 Z"/></g>
<g transform="translate(607 117) rotate(16) scale(1.89) translate(-50 -50)" fill="#e06c9f" opacity="0.91"><path d="M50 10 C58 30 80 34 80 50 C80 66 58 70 50 90 C42 70 20 66 20 50 C20 34 42 30 50 10 Z"/></g>
<rect x="0" y="342" width="640" height="58" fill="#1e1b18"/>
<text x="24" y="378" fill="#fbf4e6" font-family="Georgia, serif" font-size="24" font-weight="600">Pride Stories</text>
</svg>